<svg width="231" height="68" viewBox="0 0 231 68" fill="none" xmlns="http://www.w3.org/2000/svg">
<path d="M83.8 53H75.7V23.6H67.05V17.3H92.45V23.6H83.8V53ZM109.89 25.7V53H101.89V25.7H109.89ZM105.94 15C107.107 15 108.107 15.2667 108.94 15.8C109.774 16.3 110.19 17.25 110.19 18.65C110.19 20.0167 109.774 20.9667 108.94 21.5C108.107 22.0333 107.107 22.3 105.94 22.3C104.74 22.3 103.724 22.0333 102.89 21.5C102.057 20.9667 101.64 20.0167 101.64 18.65C101.64 17.25 102.057 16.3 102.89 15.8C103.724 15.2667 104.74 15 105.94 15ZM152.585 25.2C155.552 25.2 157.785 26 159.285 27.6C160.818 29.1667 161.585 31.7 161.585 35.2V53H153.635V37.05C153.635 35.0833 153.335 33.6167 152.735 32.65C152.168 31.65 151.302 31.15 150.135 31.15C148.468 31.15 147.302 31.85 146.635 33.25C145.968 34.65 145.635 36.6667 145.635 39.3V53H137.635V37.05C137.635 35.75 137.502 34.6667 137.235 33.8C137.002 32.9333 136.635 32.2833 136.135 31.85C135.635 31.3833 134.968 31.15 134.135 31.15C133.002 31.15 132.102 31.5 131.435 32.2C130.802 32.9 130.352 33.9167 130.085 35.25C129.818 36.5833 129.685 38.2167 129.685 40.15V53H121.685V25.7H127.735L128.885 29.2H129.185C129.685 28.2667 130.302 27.5167 131.035 26.95C131.802 26.35 132.668 25.9167 133.635 25.65C134.635 25.35 135.702 25.2 136.835 25.2C138.702 25.2 140.268 25.5333 141.535 26.2C142.835 26.8333 143.852 27.8333 144.585 29.2H145.035C145.835 27.8 146.902 26.7833 148.235 26.15C149.602 25.5167 151.052 25.2 152.585 25.2ZM184.368 25.2C186.802 25.2 188.902 25.6833 190.668 26.65C192.435 27.6167 193.802 29.0167 194.768 30.85C195.735 32.6833 196.218 34.9333 196.218 37.6V41.2H179.968C180.035 43.3 180.568 44.95 181.568 46.15C182.602 47.35 184.068 47.95 185.968 47.95C187.635 47.95 189.135 47.7833 190.468 47.45C191.835 47.0833 193.235 46.5333 194.668 45.8V51.55C193.435 52.2167 192.085 52.7 190.618 53C189.185 53.3333 187.402 53.5 185.268 53.5C182.668 53.5 180.352 53 178.318 52C176.318 50.9667 174.735 49.4167 173.568 47.35C172.435 45.2833 171.868 42.6833 171.868 39.55C171.868 36.35 172.385 33.7 173.418 31.6C174.485 29.4667 175.952 27.8667 177.818 26.8C179.718 25.7333 181.902 25.2 184.368 25.2ZM184.518 30.5C183.318 30.5 182.318 30.9667 181.518 31.9C180.718 32.8333 180.252 34.2833 180.118 36.25H188.868C188.868 35.15 188.702 34.1667 188.368 33.3C188.035 32.4333 187.552 31.75 186.918 31.25C186.285 30.75 185.485 30.5 184.518 30.5ZM202.309 25.7H210.859L215.409 41.05C215.575 41.5167 215.692 42.0167 215.759 42.55C215.859 43.05 215.925 43.5667 215.959 44.1C216.025 44.6333 216.075 45.2 216.109 45.8H216.309C216.375 44.9333 216.459 44.1167 216.559 43.35C216.692 42.55 216.875 41.7833 217.109 41.05L221.659 25.7H230.059L219.359 56.45C218.692 58.35 217.842 59.9333 216.809 61.2C215.775 62.4667 214.525 63.4167 213.059 64.05C211.592 64.6833 209.875 65 207.909 65C207.109 65 206.409 64.95 205.809 64.85C205.242 64.7833 204.742 64.7 204.309 64.6V58.7C204.642 58.7667 205.042 58.8333 205.509 58.9C206.009 58.9667 206.525 59 207.059 59C208.059 59 208.892 58.7833 209.559 58.35C210.225 57.9167 210.775 57.3333 211.209 56.6C211.642 55.8667 211.959 55.05 212.159 54.15L212.509 52.8L202.309 25.7Z" fill="#26425F"/>
<rect y="14" width="11" height="11" rx="5.5" fill="#26425F" fill-opacity="0.8"/>
<rect y="29" width="11" height="26" rx="5.5" fill="#26425F"/>
<rect x="15" y="14" width="26" height="11" rx="5.5" fill="#26425F"/>
<rect x="15" y="29" width="11" height="11" rx="5.5" fill="#26425F" fill-opacity="0.8"/>
<rect x="15" y="44" width="11" height="11" rx="5.5" fill="#26425F" fill-opacity="0.8"/>
<rect x="30" y="29" width="11" height="11" rx="5.5" fill="#26425F" fill-opacity="0.8"/>
<rect x="30" y="44" width="11" height="11" rx="5.5" fill="#26425F" fill-opacity="0.8"/>
</svg>
