<svg width="224" height="74" viewBox="0 0 224 74" fill="none" xmlns="http://www.w3.org/2000/svg">
<path d="M70.6 35.85C69.9333 35.85 69.3667 35.6167 68.9 35.15C68.4333 34.65 68.2 34.0667 68.2 33.4C68.2 32.7333 68.4333 32.1667 68.9 31.7C69.3667 31.2333 69.9333 31 70.6 31H73C73.3 31 73.45 30.85 73.45 30.55V24.35C73.45 23.5833 73.7167 22.9167 74.25 22.35C74.8167 21.7833 75.4833 21.5 76.25 21.5H77.25C78.0167 21.5 78.6833 21.7833 79.25 22.35C79.8167 22.9167 80.1 23.5833 80.1 24.35V30.55C80.1 30.85 80.25 31 80.55 31H86.25C86.9167 31 87.4833 31.2333 87.95 31.7C88.45 32.1667 88.7 32.7333 88.7 33.4C88.7 34.0667 88.45 34.65 87.95 35.15C87.4833 35.6167 86.9167 35.85 86.25 35.85H80.55C80.25 35.85 80.1 35.9833 80.1 36.25V46.35C80.1 48.5167 80.3333 49.9167 80.8 50.55C81.2667 51.1833 82.2333 51.5 83.7 51.5C84.5 51.5 85.1 51.4667 85.5 51.4C86.1667 51.3333 86.75 51.4833 87.25 51.85C87.75 52.2167 88 52.7167 88 53.35C88 54.0833 87.75 54.75 87.25 55.35C86.7833 55.9167 86.2 56.2333 85.5 56.3C84.0333 56.4333 82.9333 56.5 82.2 56.5C78.9667 56.5 76.7 55.8167 75.4 54.45C74.1 53.05 73.45 50.5667 73.45 47V36.25C73.45 35.9833 73.3 35.85 73 35.85H70.6ZM104.972 56C104.205 56 103.539 55.7167 102.972 55.15C102.405 54.5833 102.122 53.9167 102.122 53.15V32.85C102.122 32.0833 102.405 31.4167 102.972 30.85C103.539 30.2833 104.205 30 104.972 30H106.272C107.039 30 107.705 30.2833 108.272 30.85C108.839 31.4167 109.122 32.0833 109.122 32.85V53.15C109.122 53.9167 108.839 54.5833 108.272 55.15C107.705 55.7167 107.039 56 106.272 56H104.972ZM104.972 24.5C104.205 24.5 103.539 24.2167 102.972 23.65C102.405 23.0833 102.122 22.4167 102.122 21.65V21.35C102.122 20.5833 102.405 19.9167 102.972 19.35C103.539 18.7833 104.205 18.5 104.972 18.5H106.272C107.039 18.5 107.705 18.7833 108.272 19.35C108.839 19.9167 109.122 20.5833 109.122 21.35V21.65C109.122 22.4167 108.839 23.0833 108.272 23.65C107.705 24.2167 107.039 24.5 106.272 24.5H104.972ZM125.316 56C124.55 56 123.883 55.7167 123.316 55.15C122.783 54.5833 122.516 53.9167 122.516 53.15V32.85C122.516 32.0833 122.783 31.4167 123.316 30.85C123.883 30.2833 124.55 30 125.316 30H126.016C126.783 30 127.433 30.2667 127.966 30.8C128.533 31.3333 128.833 31.9833 128.866 32.75V33.1C128.866 33.1333 128.883 33.15 128.916 33.15C128.983 33.15 129.016 33.1333 129.016 33.1C130.983 30.7 133.2 29.5 135.666 29.5C137.166 29.5 138.366 29.7833 139.266 30.35C140.2 30.9167 141.016 31.9167 141.716 33.35C141.716 33.3833 141.75 33.4 141.816 33.4C141.85 33.4 141.883 33.3833 141.916 33.35C144.016 30.7833 146.383 29.5 149.016 29.5C151.783 29.5 153.766 30.25 154.966 31.75C156.2 33.25 156.816 35.8333 156.816 39.5V53.15C156.816 53.9167 156.533 54.5833 155.966 55.15C155.433 55.7167 154.783 56 154.016 56H153.166C152.4 56 151.733 55.7167 151.166 55.15C150.6 54.5833 150.316 53.9167 150.316 53.15V40.5C150.316 38.0667 150.083 36.4667 149.616 35.7C149.15 34.9333 148.25 34.55 146.916 34.55C146.05 34.55 145.183 34.95 144.316 35.75C143.45 36.55 143.016 37.35 143.016 38.15V53.15C143.016 53.9167 142.733 54.5833 142.166 55.15C141.6 55.7167 140.933 56 140.166 56H139.316C138.55 56 137.883 55.7167 137.316 55.15C136.783 54.5833 136.516 53.9167 136.516 53.15V40.5C136.516 38.1 136.266 36.5167 135.766 35.75C135.3 34.95 134.4 34.55 133.066 34.55C132.2 34.55 131.333 34.95 130.466 35.75C129.6 36.55 129.166 37.35 129.166 38.15V53.15C129.166 53.9167 128.883 54.5833 128.316 55.15C127.75 55.7167 127.083 56 126.316 56H125.316ZM179.083 34.15C177.383 34.15 176.067 34.6333 175.133 35.6C174.233 36.5333 173.667 38.05 173.433 40.15C173.433 40.4167 173.567 40.55 173.833 40.55H183.633C183.9 40.55 184.033 40.4167 184.033 40.15C183.9 36.15 182.25 34.15 179.083 34.15ZM180.333 56.5C175.967 56.5 172.6 55.3667 170.233 53.1C167.9 50.8 166.733 47.4333 166.733 43C166.733 38.6 167.783 35.25 169.883 32.95C171.983 30.65 175.017 29.5 178.983 29.5C186.383 29.5 190.183 33.7 190.383 42.1C190.417 42.9 190.133 43.5667 189.533 44.1C188.933 44.6333 188.233 44.9 187.433 44.9H173.783C173.483 44.9 173.367 45.05 173.433 45.35C173.667 47.5833 174.4 49.2167 175.633 50.25C176.9 51.25 178.733 51.75 181.133 51.75C182.633 51.75 184.3 51.5 186.133 51C186.733 50.8333 187.283 50.9333 187.783 51.3C188.317 51.6667 188.583 52.1667 188.583 52.8C188.583 53.5667 188.35 54.25 187.883 54.85C187.45 55.4167 186.867 55.7667 186.133 55.9C184.267 56.3 182.333 56.5 180.333 56.5ZM206.209 55.6L197.909 32.65C197.709 31.9833 197.792 31.3833 198.159 30.85C198.525 30.2833 199.059 30 199.759 30H201.259C202.092 30 202.859 30.2667 203.559 30.8C204.259 31.3 204.709 31.95 204.909 32.75L209.559 49.1C209.559 49.1333 209.575 49.15 209.609 49.15C209.642 49.15 209.659 49.1333 209.659 49.1L215.009 32.7C215.275 31.9 215.759 31.25 216.459 30.75C217.159 30.25 217.925 30 218.759 30H219.959C220.659 30 221.192 30.2833 221.559 30.85C221.959 31.4167 222.025 32.0167 221.759 32.65L209.559 64.35C209.259 65.15 208.759 65.7833 208.059 66.25C207.359 66.75 206.575 67 205.709 67H204.509C203.842 67 203.309 66.7167 202.909 66.15C202.542 65.6167 202.492 65.0333 202.759 64.4L206.209 56.4C206.275 56.2667 206.309 56.1333 206.309 56C206.309 55.8667 206.275 55.7333 206.209 55.6Z" fill="#26425F"/>
<rect y="17" width="11" height="11" rx="5.5" fill="#26425F" fill-opacity="0.8"/>
<rect y="32" width="11" height="26" rx="5.5" fill="#26425F"/>
<rect x="15" y="17" width="26" height="11" rx="5.5" fill="#26425F"/>
<rect x="15" y="32" width="11" height="11" rx="5.5" fill="#26425F" fill-opacity="0.8"/>
<rect x="15" y="47" width="11" height="11" rx="5.5" fill="#26425F" fill-opacity="0.8"/>
<rect x="30" y="32" width="11" height="11" rx="5.5" fill="#26425F" fill-opacity="0.8"/>
<rect x="30" y="47" width="11" height="11" rx="5.5" fill="#26425F" fill-opacity="0.8"/>
</svg>
